<?xml version="1.0" encoding="UTF-8"?>
<!DOCTYPE svg PUBLIC "-//W3C//DTD SVG 1.1//EN" "http://www.w3.org/Graphics/SVG/1.1/DTD/svg11.dtd">
<!-- Creator: CorelDRAW 2019 (64-Bit) -->
<svg xmlns="http://www.w3.org/2000/svg" xml:space="preserve" width="8.5in" height="11in" version="1.1" style="shape-rendering:geometricPrecision; text-rendering:geometricPrecision; image-rendering:optimizeQuality; fill-rule:evenodd; clip-rule:evenodd"
viewBox="0 0 8500 11000"
 xmlns:xlink="http://www.w3.org/1999/xlink"
 xmlns:xodm="http://www.corel.com/coreldraw/odm/2003">
 <defs>
  <style type="text/css">
   <![CDATA[
    .str0 {stroke:#00A859;stroke-width:6.94;stroke-miterlimit:2.61313}
    .fil3 {fill:#FEFEFE}
    .fil2 {fill:#00A859}
    .fil0 {fill:black}
    .fil4 {fill:#14BF98}
    .fil1 {fill:white}
   ]]>
  </style>
   <clipPath id="id0">
    <rect x="-9083.33" y="-4277.78" width="26666.67" height="19555.56"/>
   </clipPath>
 </defs>
 <g id="Layer_x0020_1">
  <metadata id="CorelCorpID_0Corel-Layer"/>
  <g style="clip-path:url(#id0)">
   <image x="-9083.33" y="-4277.78" width="26666.67" height="19555.56" xlink:href="other_Images\other_ImgID1.png"/>
  </g>
  <path class="fil0" d="M-31382.66 -5701.24c-363.23,82.01 -456.48,329.2 -456.11,663.75 0.2,186.96 -12.63,997.87 10.47,1115.17 30.82,156.47 124.31,273.82 212.68,338.51 133.35,97.62 254.69,111.25 456.99,111.06 253.05,-0.24 913.76,31.42 1120.35,-12.31 154.86,-32.78 267.21,-127.76 331.59,-216.2 105.61,-145.09 107.94,-248.66 107.74,-455.2 -0.23,-248.74 30.54,-917.88 -11.67,-1114.48 -31.44,-146.43 -122.27,-266.99 -214.76,-334.06 -129.67,-94.04 -258.2,-108.14 -452.07,-107.97 -238.23,0.22 -923.89,-29.19 -1105.21,11.74z"/>
  <path class="fil0" d="M-33962.5 -3094.25c-585.39,77.44 -489.29,689.38 -489.29,1190.85 0,160.45 -14.72,409.93 4.21,559.96 73.3,580.82 716.33,484.21 1194.32,484.21 348.4,0 696.6,69.26 913.83,-202.74 98.39,-123.2 128.02,-234.34 127.51,-437.02 -0.47,-188.98 10.71,-1007.91 -5.26,-1122.06 -46.61,-333.29 -315.71,-479.14 -631.56,-478.36 -188.45,0.46 -998.86,-10.03 -1113.77,5.17z"/>
  <path class="fil0" d="M-33973.45 -5705.47c-574.87,100.87 -478.34,657.5 -478.34,1202.36 0,348.41 -68.59,688.11 205.93,905.76 124.21,98.48 242.17,125.13 443.67,124.63 190.96,-0.48 1006.02,11.61 1124.07,-7.17 342.48,-54.46 466.66,-329.88 466.16,-647.71 -0.29,-185.53 11.63,-1006.72 -7.34,-1119.8 -56.17,-334.83 -320.87,-466.23 -643.93,-465.63 -180.25,0.33 -1002.44,-11.37 -1110.24,7.55z"/>
  <path class="fil1" d="M-33920.8 -5333.28c-222.11,48.16 -157.49,361.34 -157.49,584.64 0,974.5 -113.24,902.11 593.91,902.11 163.56,0 619.06,20.98 749.58,-5.98 208.39,-43.06 149.2,-361.65 149.2,-592.82 0,-968.5 110.85,-894.33 -595.43,-894.33 -158.79,0 -620.04,-19.58 -739.77,6.39z"/>
  <path class="fil1" d="M-31317.42 -5330.91c-209.66,56.82 -147.72,363.06 -147.72,596.72 0,966.15 -112.22,887.66 609.87,887.66 968.88,0 882.82,107.12 882.82,-613.25 0,-133.49 16.48,-654.72 -9.23,-745.43 -56.6,-199.7 -402.31,-134.45 -599.12,-134.45 -139.33,0 -643.19,-16.57 -736.62,8.75z"/>
  <path class="fil1" d="M-33932.2 -2717.61c-209.08,55.67 -146.09,378.15 -146.09,597.56 0,963.09 -110.49,887.44 608.35,887.44 969.5,0 884.34,107.71 884.34,-613.02 0,-962.52 105.11,-880.44 -609.87,-880.44 -139.64,0 -641.39,-16.92 -736.73,8.47z"/>
  <path class="fil0" d="M-30907.29 -2170.76c-383.33,62.06 -915.47,-121.28 -930.85,180.54 -4.32,84.74 44.77,147.38 98.2,177.41 70.04,39.35 725.05,19.93 832.47,21.01 7.7,180.22 1.94,371.36 1.92,552.77 -0.02,176.12 -20.35,373.72 180.4,379.09 206.64,5.53 194.04,-191.59 194.02,-364.65 -0.02,-186.26 -6.02,-382.83 2.03,-567.83 184.94,1.02 370.06,0.21 555.02,0.22 179.21,0.02 371.97,16.96 374.94,-183.59 4.73,-319.61 -534.87,-132.84 -930.31,-194.91 -35.47,-433.43 101.88,-919.68 -182.35,-928.51 -207.44,-6.44 -193.26,189.17 -193.23,372.56 0.04,176.36 9.81,383.27 -2.25,555.89z"/>
  <rect class="fil2 str0" x="-26392.04" y="-7239.28" width="9666.67" height="9800"/>
  <path class="fil0" d="M-22082.66 -5034.58c-363.23,82.01 -456.48,329.2 -456.11,663.75 0.2,186.96 -12.63,997.87 10.47,1115.17 30.82,156.47 124.31,273.82 212.68,338.51 133.35,97.62 254.69,111.25 456.99,111.06 253.05,-0.24 913.76,31.42 1120.35,-12.31 154.86,-32.78 267.21,-127.76 331.59,-216.2 105.61,-145.09 107.94,-248.66 107.74,-455.2 -0.23,-248.74 30.54,-917.88 -11.67,-1114.48 -31.44,-146.43 -122.27,-266.99 -214.76,-334.06 -129.67,-94.04 -258.2,-108.14 -452.07,-107.97 -238.23,0.22 -923.89,-29.19 -1105.21,11.74z"/>
  <path class="fil0" d="M-24662.5 -2427.59c-585.39,77.44 -489.29,689.38 -489.29,1190.85 0,160.45 -14.72,409.93 4.21,559.96 73.3,580.82 716.33,484.21 1194.32,484.21 348.4,0 696.6,69.26 913.83,-202.74 98.39,-123.2 128.02,-234.34 127.51,-437.02 -0.47,-188.98 10.71,-1007.91 -5.26,-1122.06 -46.61,-333.29 -315.71,-479.14 -631.56,-478.36 -188.45,0.46 -998.86,-10.03 -1113.77,5.17z"/>
  <path class="fil0" d="M-24673.45 -5038.8c-574.87,100.87 -478.34,657.5 -478.34,1202.36 0,348.41 -68.59,688.11 205.93,905.76 124.21,98.48 242.17,125.13 443.67,124.63 190.96,-0.48 1006.02,11.61 1124.07,-7.17 342.48,-54.46 466.66,-329.88 466.16,-647.71 -0.29,-185.53 11.63,-1006.72 -7.34,-1119.8 -56.17,-334.83 -320.87,-466.23 -643.93,-465.63 -180.25,0.33 -1002.44,-11.37 -1110.24,7.55z"/>
  <path class="fil1" d="M-24620.8 -4666.61c-222.11,48.16 -157.49,361.34 -157.49,584.64 0,974.5 -113.24,902.11 593.91,902.11 163.56,0 619.06,20.98 749.58,-5.98 208.39,-43.06 149.2,-361.65 149.2,-592.82 0,-968.5 110.85,-894.33 -595.43,-894.33 -158.79,0 -620.04,-19.58 -739.77,6.39z"/>
  <path class="fil1" d="M-22017.42 -4664.25c-209.66,56.82 -147.72,363.06 -147.72,596.72 0,966.15 -112.22,887.66 609.87,887.66 968.88,0 882.82,107.12 882.82,-613.25 0,-133.49 16.48,-654.72 -9.23,-745.43 -56.6,-199.7 -402.31,-134.45 -599.12,-134.45 -139.33,0 -643.19,-16.57 -736.62,8.75z"/>
  <path class="fil1" d="M-24632.2 -2050.94c-209.08,55.67 -146.09,378.15 -146.09,597.56 0,963.09 -110.49,887.44 608.35,887.44 969.5,0 884.34,107.71 884.34,-613.02 0,-962.52 105.11,-880.44 -609.87,-880.44 -139.64,0 -641.39,-16.92 -736.73,8.47z"/>
  <path class="fil3" d="M-21607.29 -1504.09c-383.33,62.06 -915.47,-121.28 -930.85,180.54 -4.32,84.74 44.77,147.38 98.2,177.41 70.04,39.35 725.05,19.93 832.47,21.01 7.7,180.22 1.94,371.36 1.92,552.77 -0.02,176.12 -20.35,373.72 180.4,379.09 206.64,5.53 194.04,-191.59 194.02,-364.65 -0.02,-186.26 -6.02,-382.83 2.03,-567.83 184.94,1.02 370.06,0.21 555.02,0.22 179.21,0.02 371.97,16.96 374.94,-183.59 4.73,-319.61 -534.87,-132.84 -930.31,-194.91 -35.47,-433.43 101.88,-919.68 -182.35,-928.51 -207.44,-6.44 -193.26,189.17 -193.23,372.56 0.04,176.36 9.81,383.27 -2.25,555.89z"/>
  <path id="hexagon-green.svg" class="fil4" d="M-71595.43 -11729.53c-500.12,-1031.48 -500.12,-2219.26 0,-3250.74l6095.13 -10533.62c625.14,-968.96 1656.63,-1562.85 2813.15,-1625.36l12190.25 -0.01c1156.51,62.51 2187.99,656.39 2813.14,1625.36l6095.12 10564.91c500.12,1031.48 500.12,2219.26 0,3250.74l-6095.13 10533.62c-625.14,968.96 -1656.63,1562.85 -2813.15,1625.36l-12190.25 0.01c-1156.51,-62.51 -2187.99,-656.39 -2813.14,-1625.36l-6095.12 -10564.91z"/>
  <path class="fil3" d="M-55057.02 -19151.85c-902.39,203.75 -1134.07,817.87 -1133.16,1649.01 0.51,464.47 -31.39,2479.08 26.01,2770.51 76.57,388.74 308.84,680.27 528.38,840.98 331.28,242.52 632.75,276.39 1135.34,275.9 628.68,-0.61 2270.11,78.06 2783.37,-30.59 384.74,-81.44 663.86,-317.41 823.81,-537.13 262.37,-360.45 268.15,-617.77 267.68,-1130.9 -0.58,-617.97 75.86,-2280.35 -29,-2768.78 -78.1,-363.8 -303.76,-663.3 -533.53,-829.94 -322.15,-233.63 -641.46,-268.67 -1123.13,-268.24 -591.85,0.54 -2295.3,-72.52 -2745.76,29.18z"/>
  <path class="fil3" d="M-61466.3 -12675.11c-1454.32,192.4 -1215.58,1712.68 -1215.58,2958.51 0,398.61 -36.57,1018.42 10.46,1391.14 182.1,1442.98 1779.63,1202.96 2967.15,1202.96 865.56,0 1730.62,172.06 2270.31,-503.69 244.44,-306.07 318.04,-582.19 316.79,-1085.71 -1.17,-469.5 26.6,-2504.02 -13.06,-2787.61 -115.81,-828.01 -784.35,-1190.37 -1569.04,-1188.43 -468.19,1.15 -2481.55,-24.92 -2767.02,12.84z"/>
  <path class="fil3" d="M-61493.52 -19162.35c-1428.18,250.59 -1188.37,1633.48 -1188.37,2987.11 0,865.58 -170.41,1709.52 511.61,2250.26 308.59,244.66 601.63,310.88 1102.24,309.64 474.42,-1.19 2499.34,28.84 2792.62,-17.8 850.86,-135.3 1159.35,-819.55 1158.12,-1609.15 -0.71,-460.93 28.89,-2501.06 -18.23,-2781.99 -139.55,-831.85 -797.16,-1158.28 -1599.75,-1156.81 -447.8,0.82 -2490.43,-28.24 -2758.24,18.75z"/>
  <path class="fil4" d="M-61362.7 -18237.69c-551.8,119.64 -391.27,897.7 -391.27,1452.47 0,2421.03 -281.33,2241.17 1475.48,2241.17 406.34,0 1537.96,52.13 1862.24,-14.87 517.72,-106.96 370.68,-898.46 370.68,-1472.8 0,-2406.13 275.39,-2221.84 -1479.27,-2221.84 -394.49,0 -1540.4,-48.64 -1837.87,15.87z"/>
  <path class="fil4" d="M-54894.95 -18231.81c-520.88,141.17 -367,901.98 -367,1482.48 0,2400.27 -278.79,2205.28 1515.16,2205.28 2407.06,0 2193.25,266.13 2193.25,-1523.54 0,-331.63 40.94,-1626.56 -22.93,-1851.94 -140.62,-496.14 -999.48,-334.03 -1488.44,-334.03 -346.16,0 -1597.91,-41.17 -1830.04,21.74z"/>
  <path class="fil4" d="M-61391.03 -11739.39c-519.43,138.31 -362.94,939.46 -362.94,1484.57 0,2392.68 -274.5,2204.73 1511.37,2204.73 2408.59,0 2197.04,267.59 2197.04,-1522.98 0,-2391.27 261.15,-2187.35 -1515.15,-2187.35 -346.91,0 -1593.45,-42.03 -1830.31,21.04z"/>
  <path class="fil3" d="M-53876.03 -10380.8c-952.35,154.18 -2274.38,-301.31 -2312.58,448.52 -10.73,210.53 111.22,366.15 243.96,440.74 173.99,97.77 1801.29,49.52 2068.16,52.19 19.14,447.72 4.81,922.6 4.76,1373.29 -0.04,437.54 -50.55,928.45 448.19,941.81 513.37,13.74 482.07,-475.98 482.01,-905.93 -0.06,-462.75 -14.96,-951.09 5.05,-1410.71 459.45,2.52 919.37,0.52 1378.89,0.56 445.23,0.04 924.11,42.13 931.48,-456.11 11.76,-794.02 -1328.83,-330.03 -2311.25,-484.23 -88.13,-1076.79 253.11,-2284.82 -453.02,-2306.76 -515.37,-16.01 -480.14,469.97 -480.05,925.59 0.1,438.15 24.36,952.19 -5.59,1381.04z"/>
 </g>
</svg>
